IKResults
version=1
nRows=11
nColumns=40
inDegrees=yes

Units are S.I. units (second, meters, Newtons, ...)
If the header above contains a line with 'inDegrees', this indicates whether rotational values are in degrees (yes) or radians (no).

endheader
time	pelvis_tilt	pelvis_list	pelvis_rotation	pelvis_tx	pelvis_ty	pelvis_tz	hip_flexion_r	hip_adduction_r	hip_rotation_r	knee_angle_r	knee_angle_r_beta	ankle_angle_r	subtalar_angle_r	mtp_angle_r	hip_flexion_l	hip_adduction_l	hip_rotation_l	knee_angle_l	knee_angle_l_beta	ankle_angle_l	subtalar_angle_l	mtp_angle_l	lumbar_extension	lumbar_bending	lumbar_rotation	arm_flex_r	arm_add_r	arm_rot_r	elbow_flex_r	pro_sup_r	wrist_flex_r	wrist_dev_r	arm_flex_l	arm_add_l	arm_rot_l	elbow_flex_l	pro_sup_l	wrist_flex_l	wrist_dev_l
      2.40000000	      6.52368523	     -5.02227070	      0.00768172	      2.19744733	      0.94480725	     -0.19070258	    -11.81724312	      7.41408872	     -9.97967522	      6.90871658	      0.12057985	      1.09135766	      0.00000000	      0.00000000	     25.97603170	     -8.46845681	      3.19929717	     67.48065997	      1.17775970	     -2.06995054	      0.00000000	      0.00000000	    -13.07547272	      3.78080949	      4.44079183	      9.34892429	    -25.04714960	     40.24832489	     39.11874776	     84.33216570	      0.00000000	      0.00000000	     -2.86878196	    -23.29971167	     43.99120070	     36.81555182	     87.58263009	      0.00000000	      0.00000000
      2.40500000	      7.07058920	     -5.04513630	     -0.54773889	      2.20609421	      0.94516570	     -0.18946607	    -13.74681529	      7.51431031	     -9.39650564	      5.60725504	      0.09786506	      0.68613718	      0.00000000	      0.00000000	     25.68404715	     -8.82114944	      2.41665314	     66.19452989	      1.15531249	     -1.76756940	      0.00000000	      0.00000000	    -13.73429363	      3.61925181	      5.52073816	      8.93896762	    -25.76000205	     38.23302515	     41.23903099	     84.75116172	      0.00000000	      0.00000000	     -2.67815947	    -22.83953432	     45.89224501	     35.36828665	     87.66134003	      0.00000000	      0.00000000
      2.41000000	      7.03394980	     -5.07307900	     -0.79259089	      2.21404078	      0.94413745	     -0.18885980	    -14.51997322	      7.59276251	     -9.43538624	      5.22825354	      0.09125024	      1.08349552	      0.00000000	      0.00000000	     26.37103197	     -8.93999922	      2.11318804	     65.13675652	      1.13685087	     -1.78532579	      0.00000000	      0.00000000	    -13.76836203	      3.53543583	      5.83487973	      9.24890168	    -26.32801583	     37.83502730	     42.62309513	     84.93861148	      0.00000000	      0.00000000	     -3.15504649	    -22.36937473	     46.32029750	     34.40599501	     87.65238739	      0.00000000	      0.00000000
      2.41500000	      6.96910357	     -5.17465940	     -1.01824116	      2.22214635	      0.94301085	     -0.18797975	    -15.26426093	      7.77564647	     -9.64337344	      4.83466060	      0.08438075	      1.31778485	      0.00000000	      0.00000000	     26.99250578	     -9.20343000	      1.80189313	     63.93185588	      1.11582138	     -1.72132183	      0.00000000	      0.00000000	    -13.74519234	      3.50953445	      6.08269920	      9.72375217	    -26.66135757	     37.49130958	     43.47031245	     85.02242369	      0.00000000	      0.00000000	     -3.79267383	    -22.11095658	     46.74614046	     33.87742867	     87.68019832	      0.00000000	      0.00000000
      2.42000000	      7.37129724	     -5.22007156	     -1.73299822	      2.23047812	      0.94279194	     -0.18674413	    -16.84399160	      7.75611913	     -8.91049160	      3.91353597	      0.06830409	      1.11151461	      0.00000000	      0.00000000	     26.76784862	     -9.67075093	      0.87090526	     62.49706722	      1.09077960	     -1.82715552	      0.00000000	      0.00000000	    -14.29879268	      3.37562357	      7.74301157	      8.43583559	    -27.40895655	     33.76897254	     46.24174400	     85.70664718	      0.00000000	      0.00000000	     -3.04558440	    -21.58169420	     50.00024636	     32.10446875	     87.61216968	      0.00000000	      0.00000000
      2.42500000	      7.52727547	     -5.33560208	     -2.09425536	      2.23858512	      0.94189150	     -0.18569434	    -17.96323891	      7.88854155	     -8.71080915	      3.30821960	      0.05773932	      1.11115011	      0.00000000	      0.00000000	     26.97220621	    -10.03938558	      0.46982466	     61.20052071	      1.06815059	     -2.73227310	      0.00000000	      0.00000000	    -14.53553727	      3.32684825	      8.19117815	      8.85020279	    -27.87964883	     33.49403079	     47.31664813	     85.83964819	      0.00000000	      0.00000000	     -3.50757791	    -21.21891223	     50.68377782	     31.33242143	     87.64030856	      0.00000000	      0.00000000
      2.43000000	      7.64367264	     -5.43945222	     -2.54260032	      2.24680871	      0.94078668	     -0.18461422	    -19.01529456	      7.95778521	     -8.50831571	      2.78182501	      0.04855201	      1.25025426	      0.00000000	      0.00000000	     27.15914898	    -10.45521617	     -0.16332352	     59.78594046	      1.04346151	     -2.84041080	      0.00000000	      0.00000000	    -14.74216797	      3.27216281	      8.97711326	      8.62787816	    -28.40003793	     32.05469358	     48.96754995	     86.06069102	      0.00000000	      0.00000000	     -3.67135282	    -20.82612086	     52.15420192	     30.30462658	     87.61523628	      0.00000000	      0.00000000
      2.43500000	      7.48297815	     -5.62616893	     -2.68147440	      2.25477571	      0.93892677	     -0.18370485	    -19.57448699	      8.21355078	     -8.71584527	      2.58448757	      0.04510782	      1.49805173	      0.00000000	      0.00000000	     27.86234978	    -10.83849572	     -0.41568868	     58.48417782	      1.02074146	     -2.75852524	      0.00000000	      0.00000000	    -14.61781948	      3.34363183	      9.01768162	      9.24838644	    -28.65295117	     31.93236283	     49.70052467	     86.10394894	      0.00000000	      0.00000000	     -4.44720506	    -20.62949760	     52.37914097	     29.97466207	     87.63407857	      0.00000000	      0.00000000
      2.44000000	      7.91305155	     -5.68143510	     -3.41174351	      2.26307314	      0.93830512	     -0.18241431	    -21.03741463	      8.07113248	     -8.02562821	      1.98917499	      0.03471765	      1.52898163	      0.00000000	      0.00000000	     27.38566948	    -11.33610850	     -1.45073767	     56.76927296	      0.99081073	     -2.69246561	      0.00000000	      0.00000000	    -15.18357954	      3.16227284	     10.17049575	      8.97144694	    -29.33932477	     30.65441764	     51.51556601	     86.30016643	      0.00000000	      0.00000000	     -4.41860433	    -20.05605810	     54.14970222	     28.57386254	     87.69012081	      0.00000000	      0.00000000
      2.44500000	      7.90096153	     -5.85880557	     -3.53914886	      2.27111134	      0.93654344	     -0.18202268	    -21.77936924	      8.24813577	     -8.09373058	      1.77066988	      0.03090402	      1.85479552	      0.00000000	      0.00000000	     27.78607198	    -11.66905312	     -1.73417834	     55.35303384	      0.96609269	     -2.81972165	      0.00000000	      0.00000000	    -15.25345465	      3.26946974	     10.36316647	      9.32933516	    -29.84814806	     30.39507577	     52.60952747	     86.38669421	      0.00000000	      0.00000000	     -5.00204959	    -19.67685266	     54.44154711	     27.91269076	     87.71597634	      0.00000000	      0.00000000
      2.45000000	      8.12323902	     -5.84244446	     -4.19939126	      2.27942396	      0.93539772	     -0.18079884	    -22.80954119	      7.99091748	     -7.62034492	      1.53284676	      0.02675322	      1.98992540	      0.00000000	      0.00000000	     27.52326189	    -12.15811171	     -2.96302699	     53.61502192	      0.93575866	     -3.03028681	      0.00000000	      0.00000000	    -15.56611079	      3.02250655	     11.30196022	      9.19464585	    -30.27238758	     29.11800865	     53.99949352	     86.59520923	      0.00000000	      0.00000000	     -5.16334540	    -19.30524526	     56.05689922	     26.92391048	     87.73385200	      0.00000000	      0.00000000
